<!DOCTYPE svg PUBLIC "-//W3C//DTD SVG 20010904//EN" "http://www.w3.org/TR/2001/REC-SVG-20010904/DTD/svg10.dtd">
<svg version="1.0" xmlns="http://www.w3.org/2000/svg" width="1600px" height="1600px" viewBox="0 0 16000 16000" preserveAspectRatio="xMidYMid meet">
<g id="layer1" fill="#00a3d4" stroke="none">
 <path d="M2485 12223 c-271 -38 -432 -124 -648 -347 -88 -90 -190 -219 -201 -253 -13 -39 -66 -80 -134 -103 -347 -113 -813 -499 -1038 -858 -73 -118 -210 -381 -253 -487 -5 -11 -13 -31 -19 -45 -36 -83 -69 -180 -91 -265 -47 -179 -76 -365 -88 -545 -10 -162 -10 -899 0 -1060 11 -175 44 -376 82 -510 7 -25 15 -56 18 -70 5 -26 22 -75 43 -125 7 -16 20 -50 29 -75 17 -44 164 -345 188 -385 7 -11 24 -38 37 -60 14 -23 30 -48 35 -58 59 -98 278 -368 377 -463 208 -201 372 -311 620 -418 20 -9 40 -16 46 -16 5 0 30 -9 55 -20 52 -23 91 -64 136 -143 67 -118 255 -307 400 -402 77 -51 131 -101 131 -123 0 -8 7 -44 14 -81 8 -36 22 -106 31 -156 44 -245 104 -498 180 -760 20 -70 84 -266 94 -290 9 -20 28 -69 57 -147 90 -240 283 -621 449 -887 83 -132 223 -336 315 -457 62 -83 210 -267 224 -279 6 -5 55 -59 108 -120 53 -60 163 -176 245 -256 351 -345 714 -628 1118 -873 83 -50 121 -72 230 -132 91 -50 427 -214 440 -214 2 0 32 -13 67 -29 35 -16 88 -38 118 -50 30 -12 64 -26 75 -31 75 -32 386 -135 530 -174 28 -8 75 -21 106 -30 31 -9 64 -16 74 -16 10 0 41 -6 69 -14 91 -26 328 -67 516 -90 233 -29 454 -41 725 -41 398 0 736 31 1100 101 109 21 338 74 410 94 17 5 55 16 85 24 63 18 342 109 380 124 14 5 43 17 65 25 257 97 631 275 805 382 19 12 42 25 50 28 8 4 27 15 42 25 38 24 166 105 186 117 144 86 528 380 687 525 22 21 90 82 150 137 118 108 223 215 350 357 44 49 93 103 108 120 16 17 50 58 75 91 25 33 51 65 58 70 58 51 389 537 500 733 11 20 33 60 48 87 108 190 243 465 296 600 4 11 12 31 18 45 21 49 44 105 52 130 5 14 18 50 30 80 37 97 107 315 135 420 10 36 24 85 31 109 8 25 14 54 14 66 0 12 6 41 14 66 14 46 32 134 46 229 36 237 50 320 58 341 14 35 52 70 150 136 114 76 297 258 361 360 89 140 116 162 251 209 256 88 542 303 780 584 78 92 221 292 297 416 23 36 171 339 188 384 9 25 22 59 29 75 18 41 37 96 42 120 3 11 11 43 19 70 38 138 72 344 82 505 21 336 4 1219 -27 1320 -5 19 -10 48 -10 65 -1 31 -59 274 -81 335 -22 63 -39 105 -54 133 -8 16 -15 32 -15 37 0 21 -165 357 -208 423 -14 23 -31 50 -37 59 -71 120 -241 324 -382 458 -171 164 -254 229 -398 317 -50 30 -225 113 -239 113 -9 0 -40 11 -70 24 -56 25 -96 68 -137 149 -28 55 -254 282 -351 354 -119 87 -242 146 -343 164 -215 38 -436 11 -595 -74 -228 -122 -437 -339 -562 -587 l-38 -75 0 -2670 c0 -2223 2 -2674 14 -2696 132 -254 279 -432 453 -550 75 -51 103 -88 103 -135 0 -32 -16 -132 -37 -234 -60 -292 -93 -430 -119 -503 -8 -20 -14 -46 -14 -57 0 -11 -6 -34 -14 -52 -18 -44 -65 -184 -76 -227 -5 -18 -13 -38 -19 -44 -6 -6 -11 -20 -11 -32 0 -12 -4 -25 -8 -31 -4 -5 -18 -36 -31 -69 -13 -33 -29 -73 -36 -90 -106 -239 -255 -532 -316 -623 -16 -24 -29 -45 -29 -49 0 -3 -13 -25 -30 -50 -16 -24 -30 -46 -30 -48 0 -2 -21 -34 -47 -72 -26 -37 -60 -88 -77 -113 -171 -257 -523 -649 -761 -848 -49 -41 -94 -81 -100 -87 -12 -14 -268 -205 -348 -260 -61 -42 -63 -43 -177 -115 -39 -25 -83 -53 -98 -62 -15 -10 -49 -29 -77 -43 -27 -14 -66 -36 -85 -47 -33 -20 -261 -134 -325 -163 -36 -17 -122 -54 -150 -65 -11 -4 -36 -15 -57 -24 -20 -9 -39 -16 -43 -16 -4 0 -21 -6 -38 -14 -117 -50 -336 -120 -562 -179 -846 -222 -1761 -222 -2610 0 -148 38 -514 157 -563 182 -9 5 -37 17 -62 26 -25 9 -61 24 -80 32 -19 8 -48 21 -65 28 -35 15 -149 68 -215 100 -66 32 -199 105 -242 132 -21 12 -40 23 -43 23 -3 0 -24 12 -48 27 -59 39 -80 51 -97 59 -8 4 -31 19 -50 33 -19 14 -43 31 -52 36 -70 42 -382 274 -433 322 -16 15 -52 46 -80 68 -82 66 -331 312 -423 420 -47 55 -91 105 -97 110 -10 10 -131 161 -192 240 -54 72 -247 363 -284 430 -9 17 -28 50 -42 75 -14 25 -32 56 -40 70 -16 29 -142 280 -162 325 -61 134 -75 167 -75 178 0 7 -4 17 -8 23 -4 5 -18 36 -31 69 -12 33 -28 74 -35 90 -7 17 -27 77 -45 135 -19 58 -40 120 -47 138 -8 18 -14 41 -14 52 0 11 -6 37 -14 57 -26 71 -58 207 -122 513 -53 255 -48 280 69 359 174 118 321 296 453 550 12 22 14 473 14 2696 l0 2669 -41 81 c-78 153 -128 224 -243 342 -163 169 -364 281 -576 321 -69 13 -176 21 -215 15z m165 -786 c56 -16 80 -29 125 -70 l36 -33 -4 -2389 c-3 -2138 -5 -2405 -20 -2530 -28 -241 -35 -250 -192 -260 -134 -9 -162 -2 -228 57 l-47 43 0 2547 0 2546 50 37 c83 61 181 79 280 52z m10883 -2 c27 -8 71 -31 98 -51 l49 -36 0 -2546 0 -2547 -47 -43 c-66 -59 -94 -66 -228 -57 -157 10 -164 19 -192 260 -15 125 -17 392 -20 2530 l-4 2389 36 33 c44 41 69 55 120 70 57 16 132 15 188 -2z m-11984 -3098 l1 -1469 -47 27 c-81 46 -190 134 -241 193 -57 67 -166 210 -175 232 -4 8 -21 38 -37 65 -56 94 -136 265 -182 390 -31 84 -40 111 -47 145 -4 19 -13 51 -19 70 -17 55 -40 175 -59 310 -25 182 -25 819 0 1000 19 130 43 254 59 305 6 17 14 46 18 65 8 33 14 53 45 140 17 45 53 138 67 170 6 14 17 39 23 55 62 146 160 305 245 397 74 80 226 215 295 261 l40 27 6 -457 c3 -252 7 -1119 8 -1926z m12944 2363 c14 -11 29 -20 34 -20 16 0 187 -155 254 -231 59 -66 144 -180 162 -219 4 -8 16 -28 27 -45 25 -39 72 -136 99 -205 12 -30 29 -68 37 -83 8 -16 14 -35 14 -42 0 -8 6 -29 14 -47 58 -138 119 -449 142 -718 31 -372 1 -772 -80 -1085 -38 -145 -49 -183 -62 -213 -8 -18 -14 -41 -14 -52 0 -10 -4 -21 -9 -24 -5 -3 -12 -18 -16 -33 -10 -41 -104 -242 -149 -318 -66 -114 -181 -258 -261 -327 -59 -52 -197 -154 -217 -161 -17 -6 -18 90 -18 1918 0 1077 4 1925 9 1925 4 0 20 -9 34 -20z"/>
 </g>

</svg>