<!DOCTYPE svg PUBLIC "-//W3C//DTD SVG 20010904//EN" "http://www.w3.org/TR/2001/REC-SVG-20010904/DTD/svg10.dtd">
<svg version="1.0" xmlns="http://www.w3.org/2000/svg" width="1600px" height="1600px" viewBox="0 0 16000 16000" preserveAspectRatio="xMidYMid meet">
<g id="layer1" fill="#00a3d4" stroke="none">
 <path d="M4 14728 c5 -382 13 -514 35 -618 20 -87 41 -172 53 -205 5 -16 13 -47 18 -68 4 -21 13 -44 19 -50 6 -6 11 -19 11 -29 0 -10 4 -26 9 -36 5 -9 19 -39 31 -67 61 -142 125 -261 195 -363 28 -41 55 -83 62 -94 6 -11 15 -23 20 -27 4 -3 30 -35 58 -71 80 -105 269 -302 435 -454 138 -127 456 -359 550 -402 8 -4 22 -13 30 -19 71 -58 547 -292 875 -430 88 -37 180 -76 205 -87 25 -11 54 -23 65 -28 11 -4 31 -12 45 -18 14 -6 50 -21 80 -32 30 -12 64 -26 75 -30 11 -5 45 -19 75 -30 30 -12 64 -26 75 -30 11 -5 61 -25 110 -46 50 -20 110 -45 135 -56 25 -11 56 -25 70 -30 44 -19 169 -74 250 -110 88 -39 357 -176 398 -202 23 -14 44 -26 47 -26 20 0 176 -120 245 -190 167 -167 175 -191 189 -595 6 -165 13 -392 17 -505 l7 -205 -63 -84 c-177 -239 -300 -456 -455 -806 -56 -125 -145 -372 -145 -401 0 -13 -16 -53 -48 -124 -24 -51 -111 -165 -187 -245 -37 -38 -86 -95 -110 -125 -39 -51 -135 -205 -135 -217 0 -3 -6 -19 -14 -36 -33 -77 -39 -94 -46 -122 -5 -16 -13 -43 -19 -60 -35 -103 -69 -273 -82 -417 -26 -269 24 -491 163 -731 32 -54 34 -86 14 -166 -56 -221 -113 -593 -153 -1001 -25 -259 -24 -963 1 -1145 26 -186 68 -391 111 -535 8 -30 20 -68 25 -85 8 -29 20 -64 45 -135 72 -197 212 -468 328 -630 118 -165 312 -373 462 -494 195 -158 436 -301 655 -390 36 -15 73 -31 82 -36 10 -6 26 -10 36 -10 10 0 22 -4 28 -9 5 -4 43 -18 84 -31 41 -13 93 -28 115 -35 295 -93 768 -159 1145 -159 660 -1 1224 158 1565 443 135 113 201 148 370 201 72 22 177 61 230 85 62 29 141 63 175 77 39 16 47 14 155 -46 106 -59 322 -165 420 -206 11 -4 40 -17 65 -28 77 -35 332 -112 370 -112 13 0 49 -6 79 -14 244 -62 874 -93 1166 -58 172 21 342 64 500 127 22 9 49 19 60 22 79 26 342 175 397 226 54 50 166 110 253 137 310 96 623 296 796 511 62 77 199 286 199 304 0 3 14 35 31 72 93 207 144 391 196 718 25 159 25 799 0 995 -37 283 -71 477 -122 705 -39 172 -48 212 -55 235 -6 20 4 49 42 128 84 174 92 219 91 487 0 217 -2 235 -27 325 -39 140 -42 150 -66 210 -12 30 -24 64 -28 75 -19 63 -153 255 -246 350 -79 82 -137 192 -195 375 -26 83 -49 149 -60 175 -5 11 -19 45 -31 75 -39 98 -94 214 -134 285 -12 22 -37 67 -55 100 -19 33 -39 67 -46 75 -6 8 -15 22 -19 30 -13 30 -155 238 -167 246 -13 8 -11 115 6 419 28 507 53 565 311 737 164 108 346 203 554 288 30 13 75 31 100 42 25 11 54 23 65 28 66 26 183 73 200 81 11 4 45 18 75 29 30 12 64 26 75 30 11 5 45 19 75 30 88 35 134 54 228 96 17 8 47 20 65 28 125 55 416 197 542 264 386 207 758 496 960 747 22 27 47 56 56 65 12 13 149 218 196 295 22 35 100 198 123 255 12 30 28 70 36 88 8 18 14 42 14 53 0 11 4 28 10 38 14 28 42 157 52 246 5 44 11 248 14 452 l5 373 -1759 2 -1760 3 67 140 c105 215 154 339 206 520 56 195 133 810 124 985 l-4 65 -55 7 c-149 19 -2536 28 -7458 28 l-5363 0 5 -382z m11874 -415 c169 -7 167 -6 138 -75 -7 -18 -23 -62 -34 -98 -39 -121 -53 -155 -118 -286 -108 -220 -171 -305 -383 -513 -151 -150 -362 -331 -385 -331 -2 0 -31 -18 -64 -39 -66 -44 -138 -85 -227 -130 -33 -17 -76 -39 -95 -50 -47 -27 -241 -117 -490 -228 -25 -11 -85 -37 -135 -58 -49 -20 -106 -44 -125 -53 -47 -21 -79 -34 -185 -77 -49 -20 -99 -40 -110 -45 -11 -4 -45 -18 -75 -30 -30 -11 -66 -26 -80 -32 -32 -14 -53 -22 -120 -48 -77 -31 -89 -36 -140 -58 -25 -11 -70 -29 -100 -42 -51 -20 -120 -51 -195 -85 -16 -7 -56 -25 -87 -39 -99 -44 -161 -75 -223 -111 -33 -19 -70 -39 -83 -45 -33 -14 -305 -194 -335 -222 -14 -13 -67 -59 -117 -103 -81 -70 -136 -127 -288 -300 -49 -55 -133 -187 -169 -265 -17 -36 -36 -98 -42 -138 -21 -133 -30 -450 -32 -1054 l-1 -597 46 -36 c25 -19 49 -35 52 -35 9 0 83 -60 120 -96 43 -43 118 -142 144 -190 12 -21 30 -52 40 -69 28 -44 72 -138 115 -240 56 -136 84 -215 95 -271 5 -22 13 -51 18 -65 19 -49 72 -322 72 -372 0 -45 30 -195 47 -239 9 -20 28 -49 43 -63 25 -24 39 -28 132 -36 188 -15 218 -36 266 -184 45 -143 82 -363 82 -493 0 -91 -3 -106 -22 -133 -19 -26 -139 -119 -153 -119 -18 0 -95 -66 -105 -90 -17 -41 -6 -119 40 -275 12 -38 25 -83 29 -100 9 -29 18 -63 61 -210 42 -146 109 -437 133 -575 73 -415 81 -502 81 -895 1 -362 -2 -402 -50 -635 -21 -104 -71 -274 -93 -318 -5 -9 -25 -51 -45 -92 -46 -93 -48 -97 -119 -192 -127 -171 -252 -271 -437 -351 -98 -42 -446 -137 -503 -137 -44 0 -113 -63 -152 -140 -94 -183 -266 -283 -601 -349 -232 -45 -566 -59 -829 -33 -324 32 -527 70 -790 149 -69 21 -187 64 -240 88 -244 110 -362 192 -560 390 -99 99 -138 142 -204 227 -12 14 -21 29 -21 32 0 3 -13 24 -29 48 -47 70 -151 285 -151 312 0 7 -7 21 -15 32 -8 10 -15 27 -15 36 0 10 -6 32 -14 50 -32 76 -70 271 -87 443 -18 182 -19 808 -1 1000 20 220 50 421 87 585 9 36 15 74 15 84 0 11 6 42 14 70 8 28 22 85 31 126 24 110 44 198 60 260 34 129 75 307 77 335 3 28 -7 37 -132 131 -165 125 -163 119 -148 321 16 233 52 411 101 498 14 25 37 47 62 60 39 19 228 54 291 55 43 0 57 21 65 94 41 358 107 635 219 911 4 11 45 97 91 190 100 206 170 303 274 380 41 30 77 55 79 55 3 0 22 12 43 26 l38 25 17 227 c19 261 23 741 8 942 -6 74 -15 196 -19 270 -9 141 -25 241 -46 300 -73 200 -178 353 -371 540 -140 135 -426 354 -514 394 -8 3 -28 15 -45 25 -89 58 -341 181 -369 181 -6 0 -16 4 -21 9 -6 5 -50 26 -100 46 -49 21 -110 46 -135 57 -25 11 -54 23 -65 28 -76 30 -255 104 -280 115 -16 7 -50 20 -75 30 -25 10 -58 23 -75 31 -16 7 -70 29 -120 49 -49 20 -100 40 -112 46 -177 74 -409 172 -422 179 -9 4 -32 15 -51 23 -153 68 -377 177 -475 232 -44 24 -89 49 -100 55 -11 6 -33 19 -50 30 -16 11 -37 23 -45 27 -8 3 -31 19 -51 35 -20 15 -40 28 -43 28 -23 0 -232 175 -346 289 -200 201 -345 416 -455 676 -37 85 -46 114 -89 274 l-15 54 5482 -6 c3015 -4 5551 -10 5635 -14z m3339 -1745 c-11 -48 -29 -98 -63 -173 -12 -27 -29 -66 -37 -85 -63 -141 -194 -327 -318 -451 -67 -67 -288 -243 -329 -262 -8 -4 -28 -16 -45 -27 -16 -11 -39 -24 -50 -30 -11 -6 -33 -19 -50 -29 -58 -37 -533 -271 -551 -271 -2 0 -32 -13 -66 -29 -35 -15 -115 -50 -178 -76 -63 -26 -124 -51 -135 -56 -11 -4 -45 -18 -75 -29 -77 -31 -89 -36 -140 -58 -25 -10 -81 -34 -125 -52 -44 -18 -108 -46 -143 -62 -35 -15 -66 -28 -68 -28 -7 0 -169 -76 -309 -146 -113 -56 -201 -103 -245 -132 -35 -24 -63 -40 -80 -48 -45 -22 -266 -199 -336 -268 -77 -77 -234 -258 -234 -270 0 -3 -13 -24 -29 -48 -16 -24 -48 -79 -72 -123 l-42 -80 -8 -724 c-4 -399 -6 -728 -3 -733 3 -4 40 -31 82 -59 95 -63 141 -106 196 -184 107 -150 164 -276 250 -555 12 -41 20 -76 56 -250 7 -30 16 -84 20 -120 13 -102 37 -197 57 -233 34 -57 70 -74 177 -79 106 -6 135 -18 162 -70 19 -37 54 -177 54 -216 0 -15 7 -59 15 -97 24 -116 21 -155 -19 -201 -19 -22 -82 -73 -141 -114 -58 -40 -107 -76 -109 -79 -5 -7 16 -91 32 -131 5 -14 17 -52 27 -85 9 -33 23 -78 30 -100 33 -109 44 -145 60 -205 10 -36 23 -85 30 -110 23 -80 68 -277 88 -385 92 -496 102 -869 31 -1215 -18 -90 -54 -211 -66 -224 -4 -6 -8 -16 -8 -24 0 -28 -90 -193 -143 -264 -80 -106 -153 -172 -272 -245 -18 -11 -31 -17 -90 -42 -11 -4 -37 -16 -58 -25 -21 -9 -45 -16 -53 -16 -9 0 -37 -7 -63 -15 -85 -27 -167 -45 -203 -45 -30 0 -45 -9 -90 -53 -29 -28 -80 -87 -112 -129 -69 -89 -157 -158 -233 -181 -10 -3 -43 -15 -73 -27 -105 -40 -233 -54 -530 -54 -419 -1 -695 34 -960 121 -69 23 -340 149 -340 158 0 2 40 86 89 187 99 206 123 259 156 362 77 241 108 438 125 822 26 581 -4 996 -111 1514 -6 30 -15 73 -19 95 -7 38 -32 146 -67 295 -34 146 -34 149 -1 220 76 166 89 199 111 285 76 294 48 622 -83 960 -63 163 -173 331 -324 494 -120 131 -152 182 -186 299 -11 37 -25 83 -32 102 -6 19 -15 49 -19 65 -29 117 -143 388 -248 591 -86 165 -136 247 -267 433 l-87 124 6 376 c8 435 21 647 44 711 36 100 163 247 291 336 139 97 363 219 587 319 33 15 74 33 90 40 138 63 166 75 175 75 6 0 18 4 28 9 23 13 89 41 187 80 44 18 94 39 110 46 17 7 55 23 85 34 30 12 64 26 75 31 11 4 124 52 250 105 127 54 259 111 295 127 36 17 99 46 140 65 88 41 397 195 455 227 22 12 67 37 100 55 33 19 67 39 75 46 8 6 22 15 30 19 17 8 36 19 100 60 51 33 280 204 295 220 39 43 -43 41 1639 46 875 3 1648 6 1717 8 l126 2 -10 -42z"/>
 </g>

</svg>