<!DOCTYPE svg PUBLIC "-//W3C//DTD SVG 20010904//EN" "http://www.w3.org/TR/2001/REC-SVG-20010904/DTD/svg10.dtd">
<svg version="1.0" xmlns="http://www.w3.org/2000/svg" width="1600px" height="1600px" viewBox="0 0 16000 16000" preserveAspectRatio="xMidYMid meet">
<g id="layer1" fill="#00a3d4" stroke="none">
 <path d="M7888 15693 c-66 -25 -178 -134 -348 -338 -41 -49 -80 -94 -86 -100 -6 -5 -33 -38 -60 -73 -27 -35 -75 -96 -107 -135 -31 -40 -76 -97 -100 -127 -23 -30 -76 -98 -117 -150 -41 -52 -88 -113 -105 -136 -27 -38 -227 -304 -310 -414 -19 -25 -73 -99 -121 -165 -48 -66 -104 -142 -124 -170 -20 -27 -88 -122 -150 -210 -62 -88 -125 -176 -139 -195 -14 -19 -37 -51 -50 -70 -13 -19 -66 -96 -117 -171 -166 -243 -459 -686 -552 -834 -17 -27 -64 -103 -104 -168 -40 -65 -80 -129 -88 -142 -8 -13 -66 -108 -128 -212 -62 -103 -117 -195 -122 -203 -16 -26 -267 -463 -293 -510 -13 -25 -38 -70 -54 -100 -17 -30 -48 -86 -69 -125 -85 -156 -172 -326 -323 -630 -146 -293 -179 -363 -246 -510 -12 -27 -37 -80 -54 -118 -17 -37 -31 -69 -31 -72 0 -3 -14 -35 -31 -72 -17 -38 -34 -77 -39 -88 -4 -11 -17 -40 -28 -65 -10 -25 -41 -97 -67 -160 -26 -63 -51 -124 -56 -135 -16 -40 -48 -122 -83 -215 -20 -52 -41 -103 -46 -112 -6 -10 -10 -25 -10 -33 0 -8 -5 -23 -10 -33 -11 -19 -67 -170 -80 -217 -5 -16 -18 -55 -30 -85 -12 -30 -25 -68 -30 -85 -11 -39 -29 -91 -46 -133 -8 -18 -14 -41 -14 -52 0 -11 -6 -34 -14 -52 -7 -18 -21 -60 -31 -93 -10 -33 -23 -78 -30 -100 -18 -59 -42 -142 -61 -210 -9 -33 -22 -82 -29 -110 -8 -27 -21 -78 -29 -112 -9 -35 -22 -89 -30 -120 -25 -101 -43 -176 -61 -258 -9 -44 -23 -106 -31 -137 -8 -32 -14 -68 -14 -80 0 -13 -6 -52 -14 -88 -36 -158 -71 -423 -88 -655 -17 -236 -17 -957 0 -1180 23 -299 45 -435 118 -717 40 -156 105 -371 124 -413 5 -11 18 -47 29 -80 54 -162 121 -317 232 -540 50 -99 94 -187 99 -195 146 -248 286 -465 396 -611 283 -377 965 -1024 1282 -1214 9 -6 62 -40 117 -76 55 -36 129 -83 165 -104 101 -59 441 -231 538 -271 48 -20 96 -40 107 -44 11 -5 45 -19 75 -30 30 -12 69 -27 85 -34 17 -7 77 -27 135 -45 58 -19 121 -39 140 -46 19 -7 62 -20 95 -28 33 -9 87 -22 120 -31 425 -108 812 -156 1255 -156 351 0 726 36 995 95 33 7 96 21 140 30 44 10 100 23 125 30 25 7 74 21 110 30 75 20 318 101 435 144 286 105 629 279 930 471 84 54 216 150 391 288 316 247 778 711 995 997 48 64 73 100 182 265 38 58 78 117 88 132 10 15 19 29 19 32 0 3 21 40 46 83 25 43 49 85 54 93 13 22 170 340 185 375 36 80 60 137 95 225 11 30 25 64 29 75 23 58 124 366 146 445 141 515 160 667 160 1330 0 663 -25 940 -131 1455 -8 39 -22 104 -30 145 -9 41 -22 98 -30 126 -8 28 -14 59 -14 69 0 10 -6 41 -14 69 -8 28 -22 80 -32 116 -39 150 -46 178 -61 230 -8 30 -21 73 -29 95 -8 23 -14 48 -14 57 0 10 -6 32 -14 50 -7 18 -21 58 -30 88 -25 85 -124 382 -158 473 -16 45 -32 93 -35 107 -3 14 -9 30 -13 35 -5 6 -18 39 -30 75 -12 36 -28 79 -35 95 -7 17 -19 48 -28 70 -33 87 -50 131 -63 160 -7 17 -29 71 -49 120 -47 117 -53 131 -105 250 -12 28 -27 61 -32 75 -27 64 -89 203 -165 370 -101 220 -384 793 -495 1000 -117 217 -165 306 -207 380 -20 36 -41 74 -48 85 -7 11 -15 27 -19 35 -11 22 -196 346 -216 378 -10 15 -21 34 -25 42 -6 14 -298 500 -333 555 -8 13 -48 77 -88 142 -113 182 -127 205 -262 408 -69 105 -127 194 -129 199 -2 4 -24 38 -49 75 -25 36 -91 134 -147 216 -56 83 -127 186 -158 230 -31 44 -77 109 -101 145 -64 93 -97 140 -127 180 -14 19 -63 87 -109 150 -141 194 -153 210 -276 375 -127 170 -278 368 -357 469 -26 33 -72 93 -102 131 -185 238 -446 551 -542 650 -66 69 -103 84 -217 91 -52 3 -83 0 -118 -13z m256 -1063 c27 -36 54 -69 61 -75 12 -11 212 -271 262 -343 18 -25 36 -48 41 -51 4 -3 23 -28 42 -56 18 -27 38 -54 44 -60 7 -5 27 -32 46 -60 18 -27 41 -57 50 -66 9 -9 31 -39 49 -68 18 -28 36 -51 40 -51 4 0 15 -15 26 -32 10 -18 59 -86 107 -150 48 -64 88 -122 88 -127 0 -6 6 -14 13 -18 8 -4 22 -21 33 -38 10 -16 38 -56 61 -87 24 -31 43 -60 43 -64 0 -4 7 -14 16 -23 19 -20 182 -250 191 -271 3 -8 25 -40 48 -70 22 -30 122 -176 221 -325 181 -273 197 -298 211 -325 4 -8 26 -43 50 -78 24 -35 43 -65 43 -67 0 -2 19 -32 43 -67 24 -35 46 -70 50 -78 4 -8 15 -27 25 -42 17 -27 124 -198 145 -233 11 -18 43 -70 74 -120 7 -11 15 -27 19 -35 4 -8 19 -33 33 -55 37 -58 49 -78 58 -95 4 -8 32 -58 63 -110 31 -52 59 -102 63 -110 4 -8 16 -28 27 -45 11 -16 26 -43 34 -60 15 -30 47 -87 110 -195 18 -30 35 -62 39 -70 4 -8 30 -55 57 -105 27 -49 61 -112 75 -140 14 -27 48 -90 75 -140 57 -106 324 -639 370 -740 32 -69 65 -141 135 -290 19 -42 35 -77 35 -80 0 -2 14 -34 30 -72 51 -114 71 -159 98 -223 5 -14 19 -45 30 -70 10 -25 27 -65 37 -90 10 -25 23 -58 30 -75 7 -16 21 -50 30 -75 9 -25 23 -58 30 -75 13 -31 36 -91 62 -160 9 -22 21 -56 29 -75 7 -19 27 -75 44 -125 17 -49 37 -106 44 -125 24 -63 38 -105 46 -135 8 -28 15 -49 45 -135 7 -19 27 -82 44 -140 17 -58 36 -118 42 -135 6 -16 14 -46 18 -65 4 -19 13 -51 19 -70 43 -133 122 -454 176 -715 15 -72 33 -170 60 -330 47 -281 71 -804 56 -1221 -13 -342 -34 -528 -86 -736 -60 -245 -74 -299 -86 -328 -6 -14 -14 -41 -18 -60 -10 -43 -28 -97 -46 -132 -8 -14 -14 -33 -14 -42 0 -8 -6 -30 -14 -48 -8 -18 -22 -53 -31 -78 -10 -25 -27 -65 -37 -90 -11 -25 -24 -54 -28 -65 -50 -121 -167 -354 -220 -440 -10 -16 -28 -48 -40 -70 -12 -22 -35 -59 -51 -83 -16 -24 -29 -46 -29 -49 0 -3 -14 -22 -30 -43 -16 -21 -30 -41 -30 -44 0 -8 -238 -326 -255 -341 -6 -5 -52 -57 -102 -115 -95 -110 -274 -287 -358 -355 -28 -22 -63 -52 -80 -68 -73 -70 -475 -357 -499 -357 -3 0 -24 -13 -48 -29 -96 -65 -426 -231 -568 -286 -25 -9 -54 -22 -64 -27 -11 -6 -31 -14 -45 -18 -14 -5 -51 -18 -81 -30 -30 -12 -68 -25 -85 -30 -28 -8 -47 -14 -135 -45 -45 -16 -207 -60 -330 -90 -30 -7 -77 -19 -105 -25 -27 -7 -63 -15 -80 -17 -16 -2 -66 -10 -110 -18 -312 -54 -1138 -54 -1450 0 -44 8 -93 16 -110 18 -16 2 -52 10 -80 17 -27 6 -76 18 -107 26 -171 42 -364 97 -416 120 -18 8 -39 14 -47 14 -8 0 -29 6 -47 14 -18 8 -53 22 -78 31 -25 9 -58 23 -75 30 -16 7 -50 20 -75 30 -148 59 -473 222 -568 286 -24 16 -46 29 -49 29 -11 0 -238 154 -246 167 -4 7 -13 13 -18 13 -6 0 -38 21 -71 48 -33 26 -72 56 -88 67 -134 98 -409 360 -545 520 -38 44 -72 82 -75 85 -4 3 -31 37 -60 75 -29 39 -56 72 -60 75 -3 3 -26 34 -51 68 -24 35 -70 101 -102 145 -31 45 -62 91 -67 102 -6 11 -19 34 -30 50 -11 17 -24 39 -30 50 -6 11 -19 34 -29 50 -20 30 -216 421 -232 463 -5 12 -13 32 -18 45 -6 12 -20 47 -31 77 -12 30 -26 66 -32 80 -19 47 -100 295 -108 330 -4 19 -20 82 -34 140 -99 389 -141 734 -141 1165 0 480 66 1020 191 1563 8 34 21 92 29 130 17 70 39 155 60 232 7 25 20 74 30 110 23 88 73 258 86 295 6 17 15 46 19 65 4 19 14 51 20 70 7 19 18 51 25 70 7 19 18 51 24 70 7 19 16 49 21 65 11 40 30 93 45 130 7 17 16 39 18 50 9 34 66 189 77 207 5 10 10 24 10 32 0 8 6 27 14 43 8 15 22 47 30 71 41 109 58 153 84 212 10 25 27 65 37 90 10 25 27 65 37 90 11 25 23 54 28 65 12 30 40 95 60 140 9 22 24 56 33 75 50 114 72 161 97 215 15 33 45 96 65 140 43 93 319 646 374 750 21 39 55 104 78 145 22 41 59 111 83 155 23 44 46 85 50 90 4 6 22 37 41 70 18 33 43 78 56 100 12 22 27 49 33 60 6 11 22 40 37 65 14 25 33 59 42 75 9 17 29 49 44 72 15 24 27 45 27 48 0 3 12 24 27 48 38 59 51 80 59 97 4 8 19 33 33 55 38 60 50 79 57 95 4 8 26 44 48 80 23 36 46 74 53 85 7 11 31 51 55 88 24 37 48 76 53 85 6 9 29 45 53 80 23 35 42 66 42 68 0 5 176 276 289 444 187 279 276 407 292 426 11 11 19 24 19 28 0 4 21 36 48 71 26 36 81 113 122 171 41 59 117 163 168 233 51 69 112 153 134 186 23 33 47 64 55 68 7 4 13 12 13 18 0 5 42 64 93 131 50 66 105 139 122 162 16 22 34 46 40 51 6 6 58 72 116 148 57 75 118 154 134 176 158 202 193 247 212 274 12 17 37 48 55 69 l33 39 55 -58 c30 -32 77 -87 104 -123z"/>
 <path d="M7580 7991 c-154 -30 -530 -181 -675 -271 -70 -43 -80 -49 -95 -56 -8 -4 -69 -48 -135 -98 -137 -104 -295 -253 -400 -376 -69 -81 -195 -254 -195 -267 0 -4 -6 -14 -14 -22 -33 -38 -139 -249 -180 -358 -63 -167 -79 -226 -123 -433 -25 -123 -25 -575 0 -705 40 -203 87 -357 161 -525 45 -103 140 -276 185 -340 203 -285 361 -443 656 -655 95 -68 297 -179 421 -230 49 -20 104 -43 122 -51 18 -8 39 -14 47 -14 8 0 29 -6 47 -14 91 -39 301 -67 554 -73 302 -8 519 22 709 98 301 120 515 236 705 379 89 68 297 272 373 367 60 75 177 240 177 250 0 4 6 14 14 22 21 23 148 275 175 346 13 33 27 69 32 80 23 54 78 238 90 305 19 104 19 658 0 790 -18 127 -54 265 -96 365 -20 48 -160 332 -178 359 -48 76 -161 243 -171 251 -6 6 -34 39 -63 75 -128 163 -406 399 -618 526 -210 126 -436 215 -645 255 -90 17 -159 21 -470 24 -201 2 -385 0 -410 -4z m741 -700 c152 -24 251 -55 394 -126 262 -128 458 -300 606 -530 46 -71 125 -247 157 -350 88 -282 112 -508 77 -726 -47 -299 -126 -512 -270 -734 -54 -83 -318 -345 -348 -345 -3 0 -32 -17 -64 -38 -32 -22 -98 -58 -148 -81 -49 -24 -98 -47 -107 -52 -10 -5 -24 -9 -33 -9 -8 0 -29 -6 -47 -14 -158 -66 -453 -104 -668 -86 -160 14 -327 48 -418 86 -18 8 -37 14 -43 14 -24 0 -232 108 -320 167 -122 81 -359 313 -359 351 0 6 -6 15 -14 19 -8 4 -24 26 -36 48 -12 22 -30 54 -40 70 -26 42 -60 112 -104 218 -16 39 -38 111 -59 192 -81 314 -58 644 68 994 83 231 269 486 465 638 80 62 210 143 276 173 27 12 63 28 79 36 61 27 192 67 280 84 134 27 507 27 676 1z"/>
 </g>

</svg>