<!DOCTYPE svg PUBLIC "-//W3C//DTD SVG 20010904//EN" "http://www.w3.org/TR/2001/REC-SVG-20010904/DTD/svg10.dtd">
<svg version="1.0" xmlns="http://www.w3.org/2000/svg" width="1600px" height="1600px" viewBox="0 0 16000 16000" preserveAspectRatio="xMidYMid meet">
<g id="layer1" fill="#00a3d4" stroke="none">
 <path d="M7335 15990 c-60 -4 -171 -8 -245 -9 -222 -2 -706 -73 -936 -137 -28 -8 -60 -14 -71 -14 -11 0 -39 -6 -64 -14 -24 -7 -73 -22 -109 -31 -132 -35 -269 -75 -300 -88 -14 -5 -38 -13 -55 -17 -30 -8 -69 -21 -135 -46 -19 -7 -75 -27 -125 -45 -49 -17 -103 -37 -120 -44 -16 -7 -50 -20 -75 -30 -25 -9 -58 -23 -75 -30 -16 -7 -55 -23 -85 -35 -50 -20 -117 -49 -195 -85 -56 -25 -480 -236 -520 -259 -22 -12 -62 -35 -90 -50 -27 -16 -68 -39 -90 -50 -22 -12 -58 -33 -80 -47 -22 -14 -47 -29 -55 -32 -8 -4 -27 -15 -42 -25 -15 -9 -60 -37 -100 -62 -75 -46 -316 -205 -377 -250 -260 -188 -463 -347 -576 -450 -22 -21 -92 -84 -155 -141 -147 -133 -524 -511 -659 -659 -160 -177 -171 -189 -244 -275 -133 -156 -140 -165 -299 -385 -65 -89 -260 -379 -272 -402 -3 -7 -14 -25 -24 -40 -31 -48 -159 -262 -188 -313 -15 -27 -38 -68 -50 -90 -26 -45 -270 -534 -290 -580 -7 -16 -24 -55 -37 -85 -14 -30 -35 -80 -47 -110 -12 -30 -26 -64 -31 -75 -22 -53 -42 -102 -49 -125 -5 -14 -18 -50 -30 -80 -44 -115 -102 -285 -137 -400 -9 -30 -22 -73 -28 -95 -12 -39 -27 -91 -59 -205 -102 -368 -185 -884 -203 -1265 -10 -209 -10 -1394 0 -1600 11 -228 39 -477 83 -745 23 -136 67 -350 89 -430 7 -25 20 -74 30 -110 55 -206 165 -554 225 -710 40 -104 51 -135 59 -161 5 -14 13 -34 19 -45 6 -10 25 -55 43 -99 18 -44 45 -108 61 -143 15 -35 28 -66 28 -69 0 -13 217 -444 278 -552 36 -64 76 -136 90 -161 13 -25 30 -52 37 -60 6 -8 15 -22 19 -30 3 -8 15 -28 26 -45 11 -16 23 -37 27 -45 4 -8 67 -104 140 -213 202 -302 409 -568 687 -887 122 -139 564 -584 696 -701 197 -174 237 -208 327 -282 165 -137 414 -322 618 -459 111 -74 207 -137 215 -141 8 -4 29 -16 45 -27 17 -11 37 -23 45 -26 8 -4 22 -13 30 -19 8 -7 38 -25 65 -40 28 -15 68 -38 90 -50 22 -13 69 -40 105 -59 76 -42 505 -256 513 -256 3 0 34 -13 69 -28 35 -16 99 -44 143 -61 44 -18 89 -37 100 -42 57 -24 103 -42 125 -49 14 -5 50 -18 80 -30 159 -61 501 -169 710 -225 36 -10 85 -23 110 -30 81 -22 295 -66 430 -89 255 -41 550 -73 770 -83 226 -10 1344 -10 1565 0 338 15 666 61 1035 144 114 25 281 68 350 89 25 8 92 28 150 45 119 35 279 88 360 119 30 12 66 25 80 30 34 12 114 42 175 67 28 12 75 31 105 43 50 20 114 48 195 85 71 32 486 238 550 273 153 83 191 105 206 118 8 8 20 14 25 14 5 0 39 20 75 43 36 24 72 47 80 51 60 30 388 250 524 351 55 41 120 89 145 107 69 49 249 196 305 248 28 26 97 89 155 141 153 138 660 647 770 774 52 61 97 112 101 115 16 12 248 310 348 447 95 130 302 440 328 493 4 8 18 31 31 50 13 19 28 44 33 55 5 11 18 34 29 50 11 17 24 39 30 50 5 11 25 47 44 80 62 107 88 157 184 350 103 208 101 203 202 430 39 90 125 306 141 355 4 14 17 50 29 80 23 62 81 236 106 320 9 30 22 71 29 90 7 19 20 64 30 100 9 36 22 88 30 115 109 400 186 871 202 1235 10 230 10 1382 0 1625 -19 438 -106 962 -232 1395 -8 25 -21 70 -29 100 -30 101 -138 424 -168 500 -16 41 -36 93 -45 115 -8 22 -21 54 -28 70 -7 17 -23 55 -35 85 -12 30 -33 80 -47 110 -13 30 -30 69 -37 85 -20 46 -264 535 -290 580 -12 22 -35 63 -50 90 -29 51 -157 265 -188 313 -10 15 -21 33 -24 40 -12 23 -207 313 -272 402 -159 220 -166 229 -299 385 -73 86 -84 98 -244 275 -135 148 -512 526 -659 659 -63 57 -133 120 -155 141 -117 107 -473 384 -630 490 -167 113 -278 185 -327 215 -9 5 -70 42 -135 82 -131 79 -213 127 -258 149 -16 8 -50 26 -75 40 -67 38 -322 167 -420 212 -145 67 -179 82 -184 82 -3 0 -34 13 -68 29 -35 15 -88 38 -118 50 -56 22 -71 29 -125 51 -16 7 -41 16 -55 21 -14 4 -70 24 -125 44 -55 20 -114 40 -131 44 -18 5 -37 11 -43 15 -6 4 -35 14 -63 22 -29 8 -66 19 -83 24 -16 5 -61 18 -100 30 -38 12 -86 25 -105 29 -19 5 -78 20 -130 33 -385 101 -787 164 -1140 179 -263 12 -1398 19 -1535 9z m805 -715 c250 -8 469 -17 485 -20 17 -3 100 -9 185 -14 149 -9 186 -14 385 -47 172 -28 356 -66 441 -90 28 -8 60 -14 71 -14 11 0 39 -6 64 -14 24 -7 73 -21 109 -30 95 -25 169 -46 215 -62 23 -8 48 -14 57 -14 10 0 32 -6 50 -14 18 -7 83 -30 143 -49 136 -44 172 -57 210 -73 17 -7 68 -27 115 -44 47 -17 94 -35 105 -40 11 -5 80 -34 154 -65 74 -32 142 -61 150 -65 9 -5 104 -52 211 -105 217 -107 276 -138 400 -211 47 -27 92 -53 100 -57 8 -4 27 -15 42 -25 37 -24 159 -101 183 -115 11 -7 36 -24 56 -39 20 -16 40 -28 43 -28 7 0 110 -73 286 -204 132 -98 200 -151 290 -227 25 -20 68 -56 95 -79 211 -177 602 -570 755 -760 29 -36 58 -69 64 -75 7 -5 34 -39 60 -75 27 -36 54 -69 61 -75 21 -18 165 -214 165 -224 0 -6 6 -14 13 -18 39 -25 368 -542 491 -773 53 -99 205 -405 248 -500 66 -146 81 -182 193 -470 62 -158 151 -443 209 -670 10 -36 24 -88 32 -116 8 -28 14 -60 14 -71 0 -11 6 -39 14 -64 8 -24 21 -82 31 -129 9 -47 23 -114 30 -150 38 -188 68 -408 90 -650 21 -242 22 -1078 0 -1340 -23 -286 -55 -545 -87 -710 -6 -30 -14 -77 -18 -105 -4 -27 -13 -75 -19 -105 -24 -107 -42 -186 -56 -242 -38 -150 -49 -190 -76 -278 -16 -53 -29 -101 -29 -107 0 -7 -6 -27 -14 -45 -17 -41 -35 -94 -46 -133 -13 -47 -69 -198 -80 -217 -5 -10 -10 -24 -10 -32 0 -8 -6 -27 -14 -43 -8 -15 -22 -48 -31 -73 -9 -25 -21 -52 -25 -61 -5 -9 -27 -61 -50 -115 -68 -160 -199 -432 -290 -599 -33 -60 -64 -119 -69 -130 -5 -11 -21 -37 -35 -58 -14 -21 -26 -40 -26 -43 0 -3 -30 -55 -67 -115 -38 -60 -72 -117 -78 -127 -81 -139 -382 -553 -540 -742 -231 -276 -600 -649 -820 -828 -44 -36 -82 -68 -85 -71 -17 -22 -350 -276 -445 -341 -175 -118 -262 -176 -277 -185 -10 -5 -66 -40 -125 -76 -59 -36 -115 -69 -123 -72 -8 -4 -28 -16 -45 -27 -16 -11 -39 -24 -50 -30 -11 -6 -69 -37 -130 -70 -190 -103 -432 -219 -625 -300 -69 -29 -138 -58 -155 -65 -16 -8 -42 -17 -58 -20 -15 -4 -30 -11 -33 -16 -3 -5 -16 -9 -29 -9 -13 0 -26 -4 -29 -9 -3 -4 -99 -39 -213 -76 -114 -37 -223 -74 -241 -81 -18 -8 -40 -14 -50 -14 -9 0 -37 -6 -62 -14 -182 -58 -518 -133 -800 -180 -724 -118 -1463 -128 -2185 -30 -244 33 -526 85 -651 120 -28 8 -59 14 -69 14 -10 0 -43 7 -74 16 -74 21 -142 39 -221 59 -36 9 -80 23 -98 31 -18 8 -41 14 -52 14 -11 0 -34 6 -52 14 -18 7 -82 30 -143 49 -136 44 -172 57 -210 73 -16 7 -68 27 -115 44 -90 33 -98 37 -170 68 -25 11 -70 29 -100 42 -119 48 -406 189 -575 280 -49 27 -99 54 -110 59 -11 5 -37 21 -58 35 -21 14 -40 26 -43 26 -12 0 -214 126 -384 240 -147 97 -185 125 -193 137 -4 7 -12 13 -18 13 -10 0 -206 144 -224 165 -5 7 -39 34 -75 61 -36 26 -69 53 -75 59 -5 7 -52 46 -102 89 -226 189 -611 576 -773 776 -29 36 -58 70 -64 75 -7 6 -34 39 -60 75 -27 36 -54 70 -61 75 -6 6 -26 33 -45 60 -18 28 -42 59 -52 70 -29 33 -128 176 -128 185 0 5 -6 13 -13 17 -11 8 -63 80 -80 113 -4 8 -15 27 -25 42 -9 15 -37 59 -62 98 -25 39 -53 83 -62 98 -10 15 -21 34 -25 42 -4 8 -27 49 -52 90 -72 122 -302 583 -370 745 -35 83 -69 164 -76 180 -7 17 -21 50 -30 75 -10 25 -21 54 -26 65 -16 36 -70 189 -78 220 -5 17 -13 41 -18 55 -16 40 -34 92 -43 125 -5 17 -13 44 -19 60 -6 17 -24 75 -40 130 -28 95 -42 148 -76 285 -8 33 -22 86 -30 118 -81 323 -149 786 -176 1207 -42 648 27 1464 176 2075 8 30 21 87 30 125 30 123 70 269 91 330 8 23 14 48 14 57 0 10 6 32 14 50 17 42 35 94 46 133 14 52 64 189 136 378 33 84 45 113 59 140 8 16 15 32 15 37 0 22 175 389 293 615 36 68 120 217 164 290 7 11 15 27 19 35 4 8 15 26 25 40 43 62 159 242 159 246 0 5 82 119 214 299 127 171 277 355 409 500 170 187 541 549 642 626 17 13 60 49 97 81 72 61 350 272 433 328 201 135 362 240 369 240 3 0 24 13 48 29 44 29 118 73 153 91 11 6 47 26 80 45 57 33 534 271 603 301 17 8 48 21 67 29 19 9 51 22 70 30 19 8 50 21 68 29 17 7 52 21 77 31 25 9 56 22 70 27 14 6 36 14 50 18 14 5 50 18 80 30 129 50 447 150 615 193 187 48 258 65 380 91 195 41 615 106 684 106 18 0 75 7 125 15 75 13 227 26 366 33 14 1 230 -5 480 -13z"/>
 <path d="M5370 10944 c-131 -52 -229 -135 -278 -234 -21 -44 -27 -73 -30 -143 -4 -87 -3 -89 31 -140 87 -131 337 -393 1226 -1287 630 -632 721 -728 718 -750 -3 -14 -15 -68 -28 -120 -18 -75 -22 -125 -23 -235 -1 -270 51 -449 182 -625 88 -118 222 -244 302 -283 18 -9 40 -23 97 -59 l41 -27 5 -2513 c3 -1524 9 -2557 15 -2626 13 -148 46 -212 145 -287 78 -58 112 -67 233 -63 97 3 116 7 167 33 70 35 149 117 171 177 39 106 39 145 43 2750 l4 2527 45 31 c25 16 47 30 50 30 22 0 165 110 235 180 151 151 253 331 269 472 13 107 13 389 0 497 -27 235 -285 545 -560 674 -215 100 -453 125 -683 71 -62 -15 -123 -28 -137 -31 -23 -4 -108 77 -726 694 -385 384 -776 770 -870 858 -461 435 -447 424 -555 431 -41 2 -81 1 -89 -2z"/>
 </g>

</svg>