<?xml version="1.0" encoding="UTF-8" standalone="no"?>
<!-- Created with Inkscape (http://www.inkscape.org/) -->

<svg
   xmlns:dc="http://purl.org/dc/elements/1.1/"
   xmlns:cc="http://creativecommons.org/ns#"
   xmlns:rdf="http://www.w3.org/1999/02/22-rdf-syntax-ns#"
   xmlns:svg="http://www.w3.org/2000/svg"
   xmlns="http://www.w3.org/2000/svg"
   xmlns:sodipodi="http://sodipodi.sourceforge.net/DTD/sodipodi-0.dtd"
   xmlns:inkscape="http://www.inkscape.org/namespaces/inkscape"
   version="1.1"
   id="svg3720"
   width="389.96436"
   height="83.635017"
   viewBox="0 0 389.96436 83.635017"
   sodipodi:docname="logo.svg"
   inkscape:version="0.92.0 r15299">
  <metadata
     id="metadata3726">
    <rdf:RDF>
      <cc:Work
         rdf:about="">
        <dc:format>image/svg+xml</dc:format>
        <dc:type
           rdf:resource="http://purl.org/dc/dcmitype/StillImage" />
        <dc:title></dc:title>
      </cc:Work>
    </rdf:RDF>
  </metadata>
  <defs
     id="defs3724" />
  <sodipodi:namedview
     pagecolor="#ffffff"
     bordercolor="#666666"
     borderopacity="1"
     objecttolerance="10"
     gridtolerance="10"
     guidetolerance="10"
     inkscape:pageopacity="0"
     inkscape:pageshadow="2"
     inkscape:window-width="1366"
     inkscape:window-height="705"
     id="namedview3722"
     showgrid="false"
     fit-margin-top="0"
     fit-margin-left="0"
     fit-margin-right="0"
     fit-margin-bottom="0"
     inkscape:zoom="0.97186701"
     inkscape:cx="461.95628"
     inkscape:cy="37.844076"
     inkscape:window-x="-8"
     inkscape:window-y="-8"
     inkscape:window-maximized="1"
     inkscape:current-layer="svg3720" />
  <path
     style="fill:#08a5d4"
     d="M 47.230822,80.74998 C 43.524442,79.168745 36.821162,77.382552 32.320232,76.776822 22.395762,75.441197 15.153202,72.274689 8.9549315,66.561331 2.3426111,60.466308 0.04657114,55.62359 0.00135114,47.67679 c -0.0311,-5.4587 0.45944,-7.3811 3.06179996,-12 C 10.145562,23.106285 27.274122,16.010511 44.061982,18.692384 c 12.5581,2.006165 20.87744,7.42454 24.01541,15.641186 1.48033,3.876179 1.56377,5.233139 0.55396,9.00871 -1.75788,6.572487 -4.85402,10.055112 -12.11879,13.63155 -5.70739,2.809739 -7.49087,3.199502 -14.52717,3.174792 -6.62081,-0.02325 -9.06843,-0.512436 -14.02102,-2.802262 -8.8892,-4.109913 -16.5,-12.150987 -16.5,-17.432819 0,-1.024413 1.30371,-3.111606 2.89714,-4.638207 l 2.89714,-2.775638 0.665,3.93609 c 0.88751,5.253142 5.38733,10.487353 11.73549,13.650773 9.74336,4.85532 24.23997,2.938181 29.63382,-3.918997 3.26523,-4.151056 2.92461,-9.583723 -0.8367,-13.345033 -5.08195,-5.08195 -12.96203,-7.405096 -23.49189,-6.9257 -9.97622,0.45419 -15.35869,2.507182 -21.33532,8.13776 -4.7031705,4.430848 -6.1646809,7.73632 -6.1646809,13.942503 0,9.059043 6.5613809,16.216733 18.1808209,19.833107 3.29855,1.026625 7.75244,1.866591 9.89754,1.866591 2.1451,0 6.26751,0.899773 9.16091,1.999496 2.8934,1.099722 5.31698,1.999722 5.38573,2 0.0688,2.77e-4 0.38503,-1.299684 0.70286,-2.888803 0.36381,-1.819067 1.79916,-3.646702 3.875,-4.934031 1.81342,-1.124598 4.84791,-3.64941 6.7433,-5.610693 3.88956,-4.024776 7.56683,-4.675749 8.56938,-1.517006 0.86796,2.734713 -1.62798,6.366641 -6.95637,10.122435 -3.8738,2.730509 -4.36513,3.542384 -4.90564,8.10616 -0.51846,4.377555 -1.80156,6.723566 -3.65353,6.680074 -0.275,-0.0065 -3.5301,-1.304457 -7.23355,-2.884442 z M 253.11328,76.409335 c -1.5136,-1.106773 -1.65934,-3.648936 -1.41795,-24.733054 0.26602,-23.235775 0.29333,-23.502951 2.43315,-23.807787 1.4656,-0.208786 2.37332,0.350866 2.81228,1.733895 l 0.64816,2.04219 2.90879,-2.150561 c 3.85205,-2.847945 11.00646,-2.917748 14.75495,-0.14396 4.11996,3.048671 5.71243,7.047258 5.70573,14.326732 -0.0107,11.655812 -5.13821,17.188497 -16.52599,17.831964 l -6.96803,0.393729 v 6.764709 c 0,7.477816 -1.37256,9.920095 -4.35109,7.742143 z m 15.87903,-20.92723 c 3.62881,-1.653396 5.47206,-5.736257 5.47206,-12.120796 0,-7.257399 -2.56081,-10.684519 -7.98369,-10.684519 -3.05867,0 -4.3645,0.625084 -6.42742,3.076725 -2.32773,2.76635 -2.58889,3.909639 -2.58889,11.333334 0,4.541134 0.3,8.556608 0.66667,8.923274 1.09387,1.093874 8.04307,0.75604 10.86127,-0.528018 z m 92.87172,20.834255 c -4.98539,-2.278826 -6.1287,-9.170185 -2.2129,-13.338363 1.68725,-1.795998 1.91567,-2.598776 1,-3.514451 -1.67992,-1.679915 -1.47117,-6.423059 0.40897,-9.292511 1.49089,-2.275383 1.45804,-2.610434 -0.5,-5.099676 -2.98128,-3.790078 -2.7789,-9.429217 0.47727,-13.298957 3.3667,-4.001099 8.85488,-5.509273 14.60917,-4.014663 2.37481,0.616829 5.21783,1.060321 6.31783,0.985539 1.1,-0.07478 3.35,-0.232835 5,-0.351228 2.40509,-0.172573 3,0.181349 3,1.78474 0,1.399865 -0.76577,2.089215 -2.552,2.297316 -2.40004,0.279613 -2.5489,0.626764 -2.5,5.830218 0.0471,5.015487 -0.2534,5.805947 -3.21378,8.452684 -2.82184,2.522886 -4.06259,2.919782 -9.12755,2.919782 -6.2179,0 -8.56203,1.39043 -7.92705,4.701961 0.28641,1.49372 1.97981,1.971532 10.00528,2.823103 11.31475,1.200592 13.8151,2.722223 13.8151,8.407417 0,7.260462 -5.22639,10.990867 -16.3665,11.681814 -4.86855,0.301963 -8.11789,-0.0075 -10.23384,-0.974725 z m 17.35034,-5.62861 c 3.34914,-2.04201 4.15189,-4.709073 2.05,-6.81096 -0.71244,-0.712439 -4.14295,-1.2 -8.4433,-1.2 -6.35139,0 -7.43498,0.273666 -8.8,2.222506 -2.00333,2.860157 -1.96421,3.369984 0.4433,5.777494 2.70486,2.704859 10.3224,2.710519 14.75,0.01096 z m -2.23832,-27.023865 c 4.11178,-4.543469 0.99968,-11.987095 -5.01168,-11.987095 -5.93078,0 -9.15096,6.631429 -5.48394,11.293281 2.64941,3.368186 7.76907,3.706621 10.49562,0.693814 z M 95.173212,61.052306 c -0.38986,-0.389867 -0.70884,-6.933849 -0.70884,-14.542183 V 32.67679 h -2.39302 c -2.37668,0 -4.12809,-2.347816 -3.05121,-4.090242 0.30924,-0.500367 1.6607,-0.909758 3.00324,-0.909758 2.0865,0 2.44153,-0.471975 2.44472,-3.25 0.005,-4.225885 3.28214,-9.527991 6.690258,-10.823754 1.48118,-0.563146 4.29348,-0.889429 6.24954,-0.725074 2.7792,0.233519 3.55647,0.732222 3.55647,2.281865 0,1.521194 -0.8852,2.126922 -3.80085,2.600846 -4.71318,0.766106 -5.61915,1.648273 -6.35601,6.189035 l -0.58425,3.600305 4.37055,0.313388 c 3.59943,0.258096 4.37056,0.666264 4.37056,2.313389 0,1.635925 -0.76872,2.055735 -4.22289,2.306173 l -4.22288,0.306173 -0.27712,14.193827 c -0.26203,13.421224 -0.38821,14.209731 -2.318268,14.48601 -1.12263,0.1607 -2.36013,-0.0268 -2.75,-0.416667 z m 23.483018,-1.399914 c -8.71515,-5.313488 -9.64987,-21.854229 -1.63277,-28.893336 3.13781,-2.755036 4.18874,-3.082266 9.89898,-3.082266 5.48355,0 6.84356,0.382926 9.60118,2.703309 4.12861,3.473994 5.94114,7.903576 5.9392,14.514572 -0.003,10.282479 -5.97019,16.785287 -15.39633,16.778381 -3.35088,-0.0025 -6.2376,-0.696024 -8.41026,-2.02066 z m 13.78546,-4.756157 c 4.46234,-3.613379 4.53315,-16.153416 0.11617,-20.570403 -3.10233,-3.10233 -8.73896,-2.762529 -11.72308,0.706722 -1.92372,2.236461 -2.37041,3.885267 -2.37041,8.74966 0,5.996326 1.81935,11.255781 4.22896,12.225282 2.79922,1.126258 7.67098,0.570904 9.74836,-1.111261 z m 18.58422,5.199235 c -1.40173,-1.401729 -1.64735,-3.447309 -1.44932,-12.070438 0.21374,-9.30722 0.0131,-10.687453 -1.93689,-13.324971 -3.76257,-5.089149 -1.89377,-7.669885 2.95703,-4.083532 l 2.94223,2.175284 3.09798,-2.606778 c 2.5334,-2.131714 3.93898,-2.552239 7.71271,-2.307511 3.8483,0.249563 4.61472,0.63143 4.61472,2.299266 0,1.553844 -0.7,2.022308 -3.13791,2.1 -1.72586,0.055 -3.84303,0.370575 -4.70482,0.701278 -2.67781,1.027572 -5.55036,8.154297 -6.17924,15.330565 -0.63587,7.255949 0.66321,7.214693 1.97298,-0.06266 0.91737,-5.09716 2.51813,-2.91692 2.51894,3.430814 10e-4,8.090953 -4.36489,12.462201 -8.40841,8.41868 z m 19.32819,-0.608748 c -1.59676,-2.963067 -1.51412,-13.508189 0.15251,-19.460789 0.75598,-2.700113 2.81959,-6.222118 4.97038,-8.483072 3.26233,-3.429423 4.21424,-3.866071 8.42817,-3.866071 3.20127,0 5.6986,0.675132 7.65783,2.070226 l 2.90737,2.070225 2.63186,-2.070225 c 3.34493,-2.631123 10.91914,-2.792488 13.98713,-0.29799 4.79564,3.899198 5.6337,6.5533 4.45931,14.122436 -1.3114,8.452206 -1.35455,10.390392 -0.21564,9.686508 0.47775,-0.295269 1.16146,-2.368005 1.51934,-4.606079 0.89325,-5.586047 2.61537,-4.038543 2.59727,2.333916 -0.02,7.050974 -1.71788,10.190983 -5.51043,10.190983 -2.57437,0 -3.13999,-0.528288 -4.28265,-4 -1.06102,-3.223642 -1.08512,-5.638042 -0.12416,-12.439627 l 1.19239,-8.439626 -2.72817,-2.34667 c -5.86525,-5.045083 -11.51841,0.60124 -12.99161,12.975923 -0.78205,6.56903 0.8349,8.056707 1.8509,1.702938 0.8903,-5.567607 2.61179,-4.003846 2.59373,2.356079 -0.025,8.81016 -4.22949,13.303894 -8.47515,9.058233 -1.49709,-1.497087 -1.68844,-3.332802 -1.37465,-13.187429 0.35983,-11.300193 0.3315,-11.473013 -2.19022,-13.363513 -5.7711,-4.326527 -11.38902,2.559493 -12.5155,15.340561 -0.59641,6.766864 0.75149,6.472831 1.99256,-0.434659 0.37331,-2.077784 1.10602,-3.513727 1.62823,-3.190983 1.37952,0.852592 1.13611,10.539418 -0.33844,13.468773 -1.74006,3.45681 -6.14994,3.913412 -7.82236,0.809932 z m 54.36027,1.527787 c -0.6875,-0.277412 -1.25,-1.366886 -1.25,-2.421052 0,-1.687506 0.75862,-1.916667 6.34501,-1.916667 4.87696,0 6.72793,-0.42312 8,-1.828741 3.42084,-3.779982 1.75749,-6.140722 -7.17014,-10.176351 -2.92883,-1.32394 -5.74133,-3.184822 -6.25,-4.135294 -1.54242,-2.882033 -1.04102,-7.357815 1.0792,-9.633603 4.58918,-4.925907 18.13483,-5.189384 18.82623,-0.36619 0.31941,2.228264 0.15371,2.282094 -5.03076,1.634338 -4.45491,-0.556606 -5.76433,-0.343259 -7.74705,1.262253 -3.39352,2.747904 -2.12526,4.881142 4.68514,7.880513 7.86926,3.465704 9.26237,4.907156 9.26237,9.583804 0,5.194407 -1.45785,7.654798 -5.54837,9.363929 -3.23825,1.353025 -12.56921,1.815264 -15.20163,0.753061 z m 63.19145,-0.629706 c -0.27268,-0.710593 -0.37106,-8.242418 -0.21862,-16.737389 0.25159,-14.020149 0.44519,-15.47766 2.09805,-15.794986 1.17951,-0.226451 2.0131,0.385506 2.36663,1.737388 0.65765,2.514877 1.11588,2.574877 3.46041,0.453106 0.99297,-0.898627 3.50341,-1.686127 5.57874,-1.75 3.14272,-0.09672 3.77334,0.21739 3.77334,1.879507 0,1.44858 -1.09651,2.345973 -4,3.273636 -6.61843,2.11458 -7.5,3.953133 -7.5,15.641509 0,10.138442 -0.7264,12.589216 -3.73138,12.589216 -0.73227,0 -1.55449,-0.581394 -1.82717,-1.291987 z m 23.18583,-0.236928 c -0.94713,-2.468188 -0.72233,-29.772776 0.25786,-31.319478 0.46998,-0.741616 1.70059,-1.185454 2.73469,-0.986305 1.74956,0.336934 1.88017,1.507378 1.88017,16.848393 0,16.042229 -0.0572,16.494463 -2.12272,16.789177 -1.25203,0.17864 -2.38002,-0.367631 -2.75,-1.331787 z m 13.8547,-0.721085 c -0.30586,-1.2375 -0.42693,-8.775 -0.26905,-16.75 0.27927,-14.105872 0.34727,-14.50856 2.50172,-14.814919 1.68152,-0.239109 2.37317,0.316652 2.87313,2.308643 l 0.65847,2.623562 2.21675,-2.082525 c 4.84528,-4.551909 12.60976,-4.712747 16.71696,-0.346283 2.15708,2.293251 2.3428,3.438012 2.64404,16.298134 0.31018,13.241876 0.23595,13.859586 -1.74105,14.487062 -1.13578,0.360481 -2.51908,0.374817 -3.074,0.03186 -0.57371,-0.354574 -1.00895,-5.099535 -1.00895,-10.999451 0,-10.238484 -0.99182,-15.244761 -3.31256,-16.720418 -2.39428,-1.522414 -6.46278,-0.737597 -8.9213,1.720926 -2.82808,2.828081 -3.42967,5.584555 -3.69532,16.931957 -0.10221,4.366201 -0.41152,8.303701 -0.68735,8.75 -1.0673,1.726937 -4.35778,0.761206 -4.90149,-1.438548 z M 41.436612,45.328458 c -6.8682,-1.492403 -14.10752,-5.651403 -17.43836,-10.018354 -3.27864,-4.298514 -3.19335,-5.32956 0.50809,-6.142532 2.61501,-0.574353 3.65298,-0.104912 7.3953,3.344632 6.48349,5.976273 16.41998,7.922377 24.08919,4.717974 3.3447,-1.397506 3.48228,-1.366722 4.05291,0.90686 0.84334,3.360115 -1.07693,6.283317 -4.57106,6.95847 -6.96214,1.34526 -8.77838,1.375403 -14.03607,0.23295 z m 27.17773,-14.221866 c -0.62837,-1.379116 -3.23186,-4.741187 -5.78553,-7.47127 -5.32827,-5.696345 -11.14338,-7.958532 -20.45798,-7.958532 -7.22193,0 -19.78562,2.36903 -23.93033,4.512339 -4.51677,2.335716 -4.64412,1.281345 -0.30535,-2.528145 6.16442,-5.412431 13.70722,-8.305594 22.92058,-8.7915597 17.69629,-0.9334042 30.40864,6.9661737 30.40864,18.8962317 0,5.536248 -1.20577,6.949703 -2.85003,3.340936 z M 310.43016,18.612868 c -1.48289,-2.770814 0.49094,-5.138567 3.94861,-4.736636 1.85424,0.215543 2.68106,0.975714 2.92309,2.687468 0.58403,4.130564 -4.88495,5.761438 -6.8717,2.049168 z M 25.963152,8.7192467 c 3.1541,-3.5501229 9.48788,-6.7553308 15.92148,-8.05707129 13.5306,-2.73770911 29.66073,3.55287699 23.09101,9.00525959 -1.19453,0.991372 -2.33083,0.89352 -5.75,-0.4951587 -2.3437,-0.9518813 -8.1111,-1.9601904 -12.81645,-2.2406868 -8.00749,-0.477345 -13.00114,0.3454351 -20.94482,3.4509815 -1.01834,0.398113 -0.85818,-0.135996 0.49878,-1.6633243 z"
     id="path3784"
     inkscape:connector-curvature="0" />
</svg>
